<svg width="28" height="20" viewBox="0 0 28 20" fill="none" xmlns="http://www.w3.org/2000/svg">
    <path fill-rule="evenodd" clip-rule="evenodd" d="M5 3C3.89543 3 3 3.89543 3 5V9.28268C3 9.81312 3.21071 10.3218 3.58579 10.6969L8.47468 15.5858C9.25572 16.3668 10.5221 16.3668 11.3031 15.5858L15.5858 11.3031C16.3668 10.5221 16.3668 9.25572 15.5858 8.47468L10.6969 3.58579C10.3218 3.21071 9.81312 3 9.28268 3H5ZM6 7C6.55228 7 7 6.55228 7 6C7 5.44772 6.55228 5 6 5C5.44772 5 5 5.44772 5 6C5 6.55228 5.44772 7 6 7Z" fill="#1DD6FC" />
</svg>